<svg width="74" height="36" viewBox="0 0 74 36" fill="none" xmlns="http://www.w3.org/2000/svg">
<path d="M43.2613 13.2682C43.4688 13.2682 43.6762 13.2752 43.8801 13.2857C43.0223 8.76113 38.3148 5.30176 32.6336 5.30176C26.3477 5.30176 21.25 9.5416 21.25 14.7729C21.25 17.624 22.7828 20.1939 25.184 21.9307C25.283 22.0006 25.3638 22.0933 25.4195 22.201C25.4751 22.3087 25.5041 22.4282 25.5039 22.5494C25.5039 22.6338 25.4863 22.7111 25.4652 22.792C25.2719 23.5057 24.966 24.6482 24.952 24.701C24.9273 24.7924 24.8922 24.8838 24.8922 24.9787C24.8922 25.1861 25.0609 25.3584 25.2719 25.3584C25.3527 25.3584 25.4195 25.3268 25.4898 25.2881L27.9824 23.8502C28.1687 23.7412 28.3691 23.6744 28.5871 23.6744C28.6996 23.6744 28.8121 23.692 28.9211 23.7236C30.0848 24.0576 31.3398 24.2439 32.6371 24.2439C32.848 24.2439 33.0555 24.2404 33.2629 24.2299C33.0133 23.4916 32.8797 22.7146 32.8797 21.9096C32.8797 17.1354 37.5273 13.2682 43.2613 13.2682ZM36.4305 10.2271C37.2672 10.2271 37.9492 10.9057 37.9492 11.7424C37.9492 12.5791 37.2707 13.2576 36.4305 13.2576C35.5938 13.2576 34.9117 12.5791 34.9117 11.7424C34.9117 10.9057 35.5938 10.2271 36.4305 10.2271ZM28.8402 13.2576C28.0035 13.2576 27.3215 12.5791 27.3215 11.7424C27.3215 10.9057 28 10.2271 28.8402 10.2271C29.6805 10.2271 30.359 10.9057 30.359 11.7424C30.359 12.5791 29.677 13.2576 28.8402 13.2576ZM49.4699 27.8686C51.4703 26.4201 52.7465 24.2826 52.7465 21.9025C52.7465 17.5432 48.4996 14.01 43.2578 14.01C38.0195 14.01 33.7691 17.5432 33.7691 21.9025C33.7691 26.2619 38.016 29.7951 43.2578 29.7951C44.3406 29.7951 45.3883 29.6404 46.3551 29.3627C46.4465 29.3346 46.5379 29.3205 46.6328 29.3205C46.8156 29.3205 46.9809 29.3768 47.1355 29.4646L49.2133 30.66C49.273 30.6951 49.3293 30.7197 49.3961 30.7197C49.4378 30.7201 49.4791 30.7122 49.5177 30.6965C49.5563 30.6808 49.5915 30.6576 49.6211 30.6283C49.6504 30.5987 49.6736 30.5636 49.6892 30.5249C49.7049 30.4863 49.7128 30.445 49.7125 30.4033C49.7125 30.326 49.6809 30.2486 49.6633 30.1713C49.6527 30.1291 49.3961 29.1764 49.2344 28.5787C49.2168 28.5119 49.2027 28.4451 49.2027 28.3783C49.2062 28.1709 49.3117 27.9846 49.4699 27.8686ZM40.1008 20.6439C39.4012 20.6439 38.8352 20.0779 38.8352 19.3818C38.8352 18.6857 39.4012 18.1197 40.1008 18.1197C40.8004 18.1197 41.3664 18.6857 41.3664 19.3818C41.3664 20.0779 40.7969 20.6439 40.1008 20.6439ZM46.4254 20.6439C45.7258 20.6439 45.1598 20.0779 45.1598 19.3818C45.1598 18.6857 45.7258 18.1197 46.4254 18.1197C47.125 18.1197 47.691 18.6857 47.691 19.3818C47.6893 19.7167 47.5554 20.0372 47.3183 20.2737C47.0812 20.5101 46.7602 20.6432 46.4254 20.6439Z" fill="white"/>
</svg>
