<svg width="74" height="36" viewBox="0 0 74 36" fill="none" xmlns="http://www.w3.org/2000/svg">
<path d="M37.0002 13.3139C34.4197 13.3139 32.3138 15.4198 32.3138 18.0003C32.3138 20.5807 34.4197 22.6866 37.0002 22.6866C39.5806 22.6866 41.6865 20.5807 41.6865 18.0003C41.6865 15.4198 39.5806 13.3139 37.0002 13.3139ZM51.0556 18.0003C51.0556 16.0596 51.0732 14.1366 50.9642 12.1995C50.8552 9.94948 50.342 7.95261 48.6967 6.3073C47.0478 4.65847 45.0545 4.1487 42.8045 4.03972C40.8638 3.93073 38.9408 3.94831 37.0037 3.94831C35.0631 3.94831 33.14 3.93073 31.2029 4.03972C28.9529 4.1487 26.956 4.66198 25.3107 6.3073C23.6619 7.95612 23.1521 9.94948 23.0431 12.1995C22.9342 14.1401 22.9517 16.0632 22.9517 18.0003C22.9517 19.9374 22.9342 21.8639 23.0431 23.801C23.1521 26.051 23.6654 28.0479 25.3107 29.6932C26.9595 31.3421 28.9529 31.8518 31.2029 31.9608C33.1435 32.0698 35.0666 32.0522 37.0037 32.0522C38.9443 32.0522 40.8674 32.0698 42.8045 31.9608C45.0545 31.8518 47.0513 31.3385 48.6967 29.6932C50.3455 28.0444 50.8552 26.051 50.9642 23.801C51.0767 21.8639 51.0556 19.9409 51.0556 18.0003ZM37.0002 25.2108C33.0099 25.2108 29.7896 21.9905 29.7896 18.0003C29.7896 14.01 33.0099 10.7897 37.0002 10.7897C40.9904 10.7897 44.2107 14.01 44.2107 18.0003C44.2107 21.9905 40.9904 25.2108 37.0002 25.2108ZM44.506 12.1784C43.5744 12.1784 42.822 11.426 42.822 10.4944C42.822 9.56276 43.5744 8.81042 44.506 8.81042C45.4377 8.81042 46.19 9.56276 46.19 10.4944C46.1903 10.7156 46.1469 10.9347 46.0624 11.1392C45.9779 11.3436 45.8538 11.5294 45.6974 11.6858C45.541 11.8422 45.3552 11.9662 45.1508 12.0508C44.9464 12.1353 44.7272 12.1787 44.506 12.1784Z" fill="white"/>
</svg>
