<svg width="75" height="36" viewBox="0 0 75 36" fill="none" xmlns="http://www.w3.org/2000/svg">
<path d="M52.5926 10.4098C52.4133 9.74193 52.0617 9.13291 51.573 8.64364C51.0844 8.15438 50.4758 7.80203 49.8082 7.62188C47.3508 6.96094 37.5 6.96094 37.5 6.96094C37.5 6.96094 27.6492 6.96094 25.1918 7.61836C24.5239 7.79793 23.915 8.15008 23.4263 8.63944C22.9375 9.12879 22.5862 9.73813 22.4074 10.4062C21.75 12.8672 21.75 18 21.75 18C21.75 18 21.75 23.1328 22.4074 25.5902C22.7695 26.9473 23.8383 28.016 25.1918 28.3781C27.6492 29.0391 37.5 29.0391 37.5 29.0391C37.5 29.0391 47.3508 29.0391 49.8082 28.3781C51.1652 28.016 52.2305 26.9473 52.5926 25.5902C53.25 23.1328 53.25 18 53.25 18C53.25 18 53.25 12.8672 52.5926 10.4098ZM34.3711 22.7109V13.2891L42.5273 17.9648L34.3711 22.7109Z" fill="white"/>
</svg>
