<svg width="74" height="36" viewBox="0 0 74 36" fill="none" xmlns="http://www.w3.org/2000/svg">
<path d="M49.9375 3.9375H24.0625C23.4402 3.9375 22.9375 4.44023 22.9375 5.0625V30.9375C22.9375 31.5598 23.4402 32.0625 24.0625 32.0625H49.9375C50.5598 32.0625 51.0625 31.5598 51.0625 30.9375V5.0625C51.0625 4.44023 50.5598 3.9375 49.9375 3.9375ZM46.6891 12.1465H44.4426C42.6812 12.1465 42.3402 12.9832 42.3402 14.2137V16.9242H46.5449L45.9965 21.1676H42.3402V32.0625H37.9563V21.1711H34.2895V16.9242H37.9563V13.7953C37.9563 10.1637 40.1746 8.18438 43.416 8.18438C44.9699 8.18438 46.3023 8.30039 46.6926 8.35313V12.1465H46.6891Z" fill="white"/>
</svg>
