<svg width="74" height="36" viewBox="0 0 74 36" fill="none" xmlns="http://www.w3.org/2000/svg">
<path d="M36.9859 2.68262C28.2918 2.6791 21.25 9.71738 21.25 18.4045C21.25 25.274 25.6551 31.1135 31.7898 33.258C32.616 33.4654 32.4895 32.8783 32.4895 32.4775V29.7529C27.7188 30.3119 27.5254 27.1549 27.2055 26.6275C26.5586 25.5236 25.0293 25.2424 25.4863 24.715C26.5727 24.1561 27.6801 24.8557 28.9633 26.7506C29.8914 28.1252 31.702 27.8932 32.6195 27.6646C32.8199 26.8385 33.2488 26.1002 33.8395 25.5271C28.8965 24.6412 26.8363 21.6248 26.8363 18.0389C26.8363 16.2986 27.4094 14.699 28.5344 13.4088C27.8172 11.2818 28.6012 9.46074 28.7066 9.19004C30.7492 9.00723 32.8727 10.6525 33.0379 10.7826C34.198 10.4697 35.5234 10.3045 37.007 10.3045C38.4977 10.3045 39.8266 10.4768 40.9973 10.7932C41.3945 10.4908 43.3633 9.07754 45.2617 9.24981C45.3637 9.52051 46.1301 11.2994 45.4551 13.3982C46.5941 14.692 47.1742 16.3057 47.1742 18.0494C47.1742 21.6424 45.1 24.6623 40.143 25.5342C40.5676 25.9517 40.9047 26.4497 41.1347 26.999C41.3646 27.5483 41.4829 28.1379 41.4824 28.7334V32.6885C41.5105 33.0049 41.4824 33.3178 42.0098 33.3178C48.2359 31.2189 52.7184 25.3373 52.7184 18.408C52.7184 9.71738 45.673 2.68262 36.9859 2.68262Z" fill="white"/>
</svg>
