<svg width="261" height="261" viewBox="0 0 261 261" fill="none" xmlns="http://www.w3.org/2000/svg">
<path d="M130.501 87.1539C106.632 87.1539 87.1529 106.633 87.1529 130.502C87.1529 154.372 106.632 173.851 130.501 173.851C154.371 173.851 173.85 154.372 173.85 130.502C173.85 106.633 154.371 87.1539 130.501 87.1539ZM260.515 130.502C260.515 112.552 260.677 94.7635 259.669 76.8452C258.661 56.0327 253.913 37.5616 238.694 22.3425C223.442 7.09082 205.004 2.37549 184.191 1.36739C166.24 0.359282 148.452 0.52188 130.534 0.52188C112.583 0.52188 94.795 0.359282 76.8767 1.36739C56.0642 2.37549 37.5931 7.12334 22.374 22.3425C7.12232 37.5941 2.40699 56.0327 1.39888 76.8452C0.390776 94.796 0.553374 112.584 0.553374 130.502C0.553374 148.421 0.390776 166.241 1.39888 184.16C2.40699 204.972 7.15484 223.443 22.374 238.662C37.6256 253.914 56.0642 258.629 76.8767 259.637C94.8275 260.646 112.616 260.483 130.534 260.483C148.485 260.483 166.273 260.646 184.191 259.637C205.004 258.629 223.475 253.882 238.694 238.662C253.946 223.411 258.661 204.972 259.669 184.16C260.71 166.241 260.515 148.453 260.515 130.502V130.502ZM130.501 197.2C93.5917 197.2 63.8039 167.412 63.8039 130.502C63.8039 93.5928 93.5917 63.8049 130.501 63.8049C167.411 63.8049 197.199 93.5928 197.199 130.502C197.199 167.412 167.411 197.2 130.501 197.2ZM199.931 76.6501C191.313 76.6501 184.354 69.6909 184.354 61.0732C184.354 52.4556 191.313 45.4964 199.931 45.4964C208.548 45.4964 215.507 52.4556 215.507 61.0732C215.51 63.1195 215.109 65.1463 214.327 67.0373C213.545 68.9283 212.398 70.6465 210.951 72.0935C209.504 73.5404 207.786 74.6877 205.895 75.4696C204.004 76.2515 201.977 76.6527 199.931 76.6501V76.6501Z" fill="white"/>
</svg>
